<svg viewBox="0 0 127 24" fill="none" xmlns="http://www.w3.org/2000/svg">
<g clip-path="url(#clip0_10703_15938)">
<path d="M19.3863 0H4.61373C2.06564 0 0 2.06564 0 4.61373V19.3863C0 21.9344 2.06564 24 4.61373 24H19.3863C21.9344 24 24 21.9344 24 19.3863V4.61373C24 2.06564 21.9344 0 19.3863 0Z" fill="url(#paint0_radial_10703_15938)"/>
<path d="M36.9194 23.1313H39.0062V12.5749H47.7297V10.6155H39.0062V2.96776H49.6248V1.00836H36.9194V23.1313Z" fill="#006FD6"/>
<path d="M60.7198 0.755829C58.0222 0.755829 55.7312 1.80359 53.845 3.9009C51.9588 5.99822 51.0166 8.7206 51.0166 12.0699C51.0166 15.4191 51.9588 18.1433 53.845 20.2388C55.7312 22.3361 58.0222 23.3839 60.7198 23.3839C63.4175 23.3839 65.7085 22.3361 67.5947 20.2388C69.4809 18.1433 70.4231 15.4191 70.4231 12.0699C70.4231 8.7206 69.4791 5.99643 67.5947 3.9009C65.7085 1.80538 63.4175 0.755829 60.7198 0.755829V0.755829ZM66.124 18.9439C64.7125 20.5988 62.9105 21.4245 60.7198 21.4245C58.5291 21.4245 56.7271 20.597 55.3156 18.9439C53.9041 17.2908 53.1983 14.9982 53.1983 12.0699C53.1983 9.1415 53.9041 6.85075 55.3156 5.19583C56.7271 3.54269 58.5291 2.71523 60.7198 2.71523C62.9105 2.71523 64.7125 3.54269 66.124 5.19583C67.5356 6.85075 68.2413 9.1415 68.2413 12.0699C68.2413 14.9982 67.5356 17.2908 66.124 18.9439V18.9439Z" fill="#006FD6"/>
<path d="M82.8508 2.71522C84.4737 2.71522 85.8225 3.14149 86.8973 3.99582C87.972 4.84835 88.719 6.07701 89.1417 7.6782L91.1963 7.0782C90.6267 5.09731 89.611 3.54985 88.1458 2.43223C86.6805 1.31641 84.9161 0.757608 82.8508 0.757608C80.1335 0.716414 77.8138 1.71044 75.8972 3.74328C73.9787 5.77611 73.0419 8.55223 73.0849 12.0716C73.0419 15.591 73.9805 18.3672 75.8972 20.4C77.8138 22.4328 80.1335 23.4287 82.8508 23.3857C84.9161 23.3857 86.6805 22.8269 88.1458 21.711C89.6092 20.5952 90.6267 19.046 91.1963 17.0651L89.1417 16.4651C88.7208 18.0663 87.972 19.2931 86.8973 20.1475C85.8225 21 84.4737 21.4281 82.8508 21.4281C80.5741 21.4281 78.7417 20.6006 77.3517 18.9475C75.9617 17.2943 75.2649 15.0018 75.2649 12.0734C75.2649 9.14507 75.9599 6.85432 77.3517 5.1994C78.7417 3.54626 80.5759 2.7188 82.8508 2.7188V2.71522Z" fill="#006FD6"/>
<path d="M107.437 16.1158C107.437 17.6328 106.952 18.8758 105.983 19.8448C105.014 20.8137 103.665 21.2991 101.936 21.2991C100.208 21.2991 98.859 20.8137 97.8899 19.8448C96.9209 18.8758 96.4354 17.6328 96.4354 16.1158V0.882996H94.3486V15.926C94.3486 18.2006 95.0705 19.9917 96.5143 21.2991C97.958 22.6048 99.7636 23.2585 101.935 23.2585C104.106 23.2585 105.911 22.6048 107.355 21.2991C108.799 19.9934 109.521 18.2024 109.521 15.926V0.882996H107.434V16.1158H107.437Z" fill="#006FD6"/>
<path d="M120.057 10.4561C116.967 9.61613 115.072 8.97494 115.052 6.4818C115.034 4.16419 117.093 2.95344 119.14 2.77971C121.578 2.57374 124.258 3.74509 124.757 6.82389L126.703 6.50867C126.006 2.20837 122.207 0.542698 118.975 0.816728C115.48 1.11225 113.059 3.44777 113.082 6.49792C113.116 10.6102 116.679 11.5791 119.541 12.3582C122.957 13.2878 125.053 14.0149 125.089 17.1188C125.123 20.0131 122.86 21.2096 120.732 21.3654C117.87 21.5767 114.771 20.0472 114.332 16.8036L112.201 17.0687C112.998 21.2955 116.63 23.3552 120.218 23.3552C120.439 23.3552 120.659 23.3481 120.878 23.332C123.989 23.1045 127.106 21.0878 127.059 17.0973C127.004 12.3475 123.152 11.2997 120.057 10.4579V10.4561Z" fill="#006FD6"/>
</g>
<defs>
<radialGradient id="paint0_radial_10703_15938" cx="0" cy="0" r="1" gradientUnits="userSpaceOnUse" gradientTransform="translate(22.6875 22.125) rotate(-137.454) scale(37.1572 23.9702)">
<stop stop-color="#006FD6"/>
<stop offset="0.1" stop-color="#006FD6" stop-opacity="0.85"/>
<stop offset="0.27" stop-color="#006FD6" stop-opacity="0.59"/>
<stop offset="0.44" stop-color="#006FD6" stop-opacity="0.38"/>
<stop offset="0.6" stop-color="#006FD6" stop-opacity="0.21"/>
<stop offset="0.75" stop-color="#006FD6" stop-opacity="0.1"/>
<stop offset="0.88" stop-color="#006FD6" stop-opacity="0.02"/>
<stop offset="0.99" stop-color="#006FD6" stop-opacity="0"/>
</radialGradient>
<clipPath id="clip0_10703_15938">
<rect width="127" height="24" fill="white"/>
</clipPath>
</defs>
</svg>
